<svg width="376" height="165" viewBox="0 0 376 165" xmlns="http://www.w3.org/2000/svg"><g fill="none" fill-rule="evenodd"><path d="M364.515 156.014c0 4.768-79.089 8.632-176.65 8.632-97.564 0-176.652-3.864-176.652-8.632 0-4.766 79.088-8.63 176.652-8.63 97.561 0 176.65 3.864 176.65 8.63" fill="#DDDED9"/><path fill="#000812" d="M233.605 104.11h25.402v-9.384h-25.402z"/><path fill="#1E2B33" d="M49.658 103.034h149.738v-7.306H49.658zM272.031 101.409h14.556V76.02h-14.556z"/><path fill="#00020A" d="M275.191 61.327l-5.13 3.302v10.216l5.13 6.965 3.438-2.476-4.488-5.948v-6.514l5.168-3.634-4.118-1.911"/><path d="M269.237 85.563a7.603 7.603 0 007.604 7.606 7.604 7.604 0 007.607-7.606c0-4.2-3.404-7.604-7.607-7.604a7.603 7.603 0 00-7.604 7.604" fill="#000812"/><path d="M271.758 85.563a5.085 5.085 0 1010.17.001 5.085 5.085 0 00-10.17-.001" fill="#00020A"/><path d="M273.259 85.563a3.584 3.584 0 007.166 0 3.583 3.583 0 00-7.166 0M279.309 51.193h7.278V31.538h-7.278z" fill="#1E2B33"/><path fill="#000812" d="M280.762 49.587h4.372V33.144h-4.372z"/><path fill="#00020A" d="M275.191 65.038l4.118-1.8V41.439h-4.118v23.599M270.061 93.447h14.02v-3.208h-14.02z"/><path fill="#1E2B33" d="M341.535 129.16H14.632v-27.905l317.17.16 9.733 27.745"/><path d="M283.032 136.541l1.702 1.053-1.229 1.612a25.031 25.031 0 001.176 3.592l1.942.581-.765 1.874a24.307 24.307 0 002.084 3.167l2.009.068-.255 1.978c.86.926 1.814 1.784 2.841 2.549l1.94-.46.28 1.991a22.515 22.515 0 003.378 1.717l1.784-.953.777 1.85c1.201.37 2.455.623 3.724.782l1.451-1.376 1.228 1.585c.185.015.384.015.566.015 1.099 0 2.179-.066 3.237-.224l1.054-1.706 1.612 1.229a23.502 23.502 0 003.591-1.189l.582-1.927 1.873.766a25.857 25.857 0 003.183-2.088l.053-2.006 1.979.253a23.321 23.321 0 002.548-2.827l-.46-1.954 1.993-.276a23.153 23.153 0 001.716-3.383l-.949-1.779 1.847-.782c.371-1.201.621-2.455.778-3.721l-1.373-1.451 1.584-1.23c.013-.185.013-.382.013-.566 0-1.095-.066-2.178-.224-3.237l-1.702-1.054 1.227-1.613a24.629 24.629 0 00-1.173-3.59l-1.943-.58.767-1.874a24.402 24.402 0 00-2.086-3.168l-2.006-.067.247-1.981a23.482 23.482 0 00-2.825-2.548l-1.953.462-.278-1.991a22.195 22.195 0 00-3.378-1.718l-1.781.951-.78-1.847a21.836 21.836 0 00-3.724-.782l-1.453 1.373-1.226-1.584c-.187-.013-.382-.013-.57-.013-1.095 0-2.177.065-3.232.224l-1.057 1.705-1.608-1.228a23.366 23.366 0 00-3.592 1.188l-.581 1.926-1.876-.765a25.842 25.842 0 00-3.182 2.088l-.053 2.006-1.993-.252a24.413 24.413 0 00-2.536 2.826l.464 1.953-1.995.277a25.073 25.073 0 00-1.731 3.379l.966 1.784-1.849.776a22.18 22.18 0 00-.778 3.725l1.373 1.453-1.584 1.226c-.015.187-.015.386-.015.57 0 1.095.068 2.177.226 3.236" fill="#000812"/><path d="M295.235 133.313c0 .57.039 1.127.113 1.672.059.47.133.936.241 1.379.148.648.356 1.278.587 1.876.182.428.366.858.587 1.262a13.1 13.1 0 001.048 1.647c.269.366.562.721.879 1.063.43.481.905.925 1.415 1.317.354.288.722.557 1.11.797.528.341 1.099.646 1.686.885.415.191.843.343 1.284.468.597.188 1.233.318 1.866.407.438.063.877.099 1.328.099.1.013.197.013.297.013a11.6 11.6 0 001.607-.112c.456-.066.907-.14 1.333-.254.622-.153 1.22-.356 1.796-.609.425-.175.839-.378 1.231-.605a13.067 13.067 0 001.586-1.076c.356-.294.695-.583 1.025-.913.453-.453.892-.949 1.269-1.468.28-.369.538-.761.769-1.151.33-.571.612-1.152.856-1.759.182-.433.328-.873.451-1.329a12.822 12.822 0 00.487-3.317c.013-.101.013-.201.013-.292 0-.57-.036-1.125-.108-1.682a13.213 13.213 0 00-.246-1.379 11.622 11.622 0 00-.587-1.861c-.182-.445-.366-.86-.584-1.278a13.012 13.012 0 00-1.051-1.635 8.54 8.54 0 00-.864-1.059 12.823 12.823 0 00-1.417-1.333 12.681 12.681 0 00-1.123-.783 11.592 11.592 0 00-1.684-.9 9.414 9.414 0 00-1.281-.453 8.99 8.99 0 00-1.858-.405 9.198 9.198 0 00-1.341-.117c-.099-.01-.197-.01-.279-.01-.551 0-1.1.036-1.625.127a9.61 9.61 0 00-1.332.239c-.621.166-1.221.367-1.793.619-.429.178-.83.379-1.234.597-.559.326-1.087.682-1.587 1.086-.352.293-.695.585-1.023.911-.464.458-.879.937-1.271 1.458a12.92 12.92 0 00-1.622 2.912c-.172.428-.331.883-.452 1.329a12.44 12.44 0 00-.389 1.935c-.062.458-.1.911-.1 1.392-.013.089-.013.191-.013.29" fill="#000812"/><path d="M295.545 133.021c.011-.464.04-.911.108-1.36.072-.637.195-1.273.379-1.883.11-.434.265-.867.432-1.286.237-.595.517-1.173.839-1.709.222-.392.472-.769.752-1.129.377-.509.781-.982 1.228-1.436.32-.316.657-.606 1.006-.881a11.19 11.19 0 011.549-1.055 9.31 9.31 0 011.201-.595 10.587 10.587 0 011.745-.596c.432-.114.867-.186 1.314-.245a9.296 9.296 0 011.578-.115c.082 0 .18 0 .264.015.445 0 .882.03 1.311.1a9.711 9.711 0 011.816.392c.432.116.851.275 1.256.463a9.137 9.137 0 011.646.869c.377.231.741.491 1.091.767.487.39.949.825 1.368 1.29.32.332.599.677.864 1.042.377.491.714 1.042 1.021 1.59.209.407.39.829.572 1.248.22.578.417 1.184.572 1.824.097.432.182.883.222 1.343.085.538.112 1.074.112 1.637v.288c-.012.451-.04.9-.112 1.347a10.077 10.077 0 01-.377 1.884c-.112.448-.265.883-.432 1.304a13.044 13.044 0 01-.837 1.708c-.224.389-.476.766-.754 1.128-.364.504-.783.983-1.243 1.432-.305.32-.642.611-.989.884-.489.391-1.006.737-1.551 1.059a12.41 12.41 0 01-1.201.578 11.87 11.87 0 01-1.745.606c-.432.103-.864.191-1.299.245-.514.077-1.046.104-1.575.104h-.28a13.088 13.088 0 01-1.313-.104 10.774 10.774 0 01-1.815-.404c-.42-.115-.837-.274-1.257-.447a12.143 12.143 0 01-1.646-.868 8.48 8.48 0 01-1.076-.784 8.995 8.995 0 01-1.381-1.288 9.931 9.931 0 01-.866-1.028 13.587 13.587 0 01-1.021-1.607 13.89 13.89 0 01-.572-1.245 15.335 15.335 0 01-.572-1.807c-.097-.437-.182-.9-.224-1.35a10.422 10.422 0 01-.108-1.635v-.29zm-2.099.29c0 .653.044 1.288.129 1.913.068.536.152 1.072.279 1.578.166.737.405 1.461.67 2.141.208.492.419.985.669 1.449.363.666.756 1.288 1.199 1.879.309.422.646.828 1.006 1.218a11.747 11.747 0 001.621 1.506c.404.332.826.637 1.27.911.6.392 1.257.739 1.926 1.014.477.219.964.388 1.466.535.684.217 1.413.362 2.137.463.5.072 1.004.117 1.521.117.112.014.224.014.337.014.612 0 1.241-.042 1.84-.131.517-.07 1.034-.157 1.523-.288a12.396 12.396 0 002.053-.695 11.84 11.84 0 001.41-.697 14.54 14.54 0 001.814-1.228c.404-.333.796-.665 1.173-1.042a15.476 15.476 0 001.453-1.68c.32-.422.612-.868.877-1.318.377-.652.701-1.319.976-2.011.212-.492.378-1.001.518-1.522.211-.71.349-1.449.449-2.201.067-.518.109-1.056.109-1.593.013-.114.013-.23.013-.332 0-.65-.04-1.288-.122-1.926a15.212 15.212 0 00-.28-1.577 13.99 13.99 0 00-.67-2.129 17.8 17.8 0 00-.673-1.462c-.36-.65-.752-1.288-1.197-1.868a10.533 10.533 0 00-.994-1.216 14.873 14.873 0 00-1.62-1.518 13.898 13.898 0 00-1.281-.898c-.602-.39-1.259-.74-1.928-1.028a10.112 10.112 0 00-1.468-.521 10.327 10.327 0 00-2.122-.462 10.851 10.851 0 00-1.534-.131c-.112-.015-.224-.015-.319-.015-.629 0-1.256.043-1.858.146-.517.056-1.021.142-1.521.274-.714.188-1.398.419-2.054.709-.488.201-.95.437-1.409.682a14.45 14.45 0 00-1.815 1.244c-.405.332-.797.667-1.172 1.042a14.678 14.678 0 00-1.455 1.665c-.32.436-.612.883-.877 1.332a14.543 14.543 0 00-.979 1.997 15.208 15.208 0 00-.516 1.521c-.21.71-.35 1.462-.445 2.213a11.511 11.511 0 00-.112 1.593c-.017.102-.017.217-.017.333z" fill="#D0D1CC"/><path d="M297.495 133.307c0 5.62 4.555 10.176 10.174 10.176 5.615 0 10.172-4.556 10.172-10.176s-4.557-10.174-10.172-10.174c-5.619 0-10.174 4.554-10.174 10.174" fill="#1C5D9C"/><path d="M303.602 133.307a4.066 4.066 0 108.132.002 4.066 4.066 0 00-8.132-.002" fill="#D0D1CC"/><path fill="#000812" d="M306.879 127.442l-.79-1.367.79-1.368h1.578l.79 1.368-.79 1.367h-1.578M301.69 129.795l-.79-1.368.79-1.367h1.576l.789 1.367-.789 1.368h-1.576M299.701 134.677l-.791-1.37.791-1.364h1.578l.79 1.364-.79 1.37h-1.578M306.879 139.172l-.79 1.37.79 1.365h1.578l.79-1.365-.79-1.37h-1.578M301.69 136.821l-.79 1.368.79 1.369h1.576l.789-1.369-.789-1.368h-1.576M313.647 129.795l.79-1.368-.79-1.367h-1.578l-.79 1.367.79 1.368h1.578M315.638 134.677l.79-1.37-.79-1.364h-1.583l-.79 1.364.79 1.37h1.583M313.647 136.821l.79 1.368-.79 1.369h-1.578l-.79-1.369.79-1.368h1.578M306.358 135.576l-1.309-2.269 1.309-2.265h2.618l1.309 2.265-1.309 2.269h-2.618M110.367 136.541l1.703 1.053-1.226 1.612a24.534 24.534 0 001.173 3.592l1.942.581-.767 1.874a24.52 24.52 0 002.085 3.167l2.008.068-.25 1.978a20.601 20.601 0 002.839 2.549l1.942-.46.275 1.991a22.478 22.478 0 003.379 1.717l1.783-.953.778 1.85c1.203.37 2.455.623 3.726.782l1.448-1.376 1.229 1.585c.184.015.383.015.57.015 1.095 0 2.177-.066 3.232-.224l1.059-1.706 1.608 1.229a23.526 23.526 0 003.59-1.189l.583-1.927 1.876.766a25.898 25.898 0 003.18-2.088l.053-2.006 1.982.253a23.832 23.832 0 002.548-2.827l-.463-1.954 1.993-.276a22.758 22.758 0 001.715-3.383l-.949-1.779 1.848-.782c.37-1.201.62-2.455.779-3.721l-1.373-1.451 1.585-1.23c.01-.185.01-.382.01-.566 0-1.095-.063-2.178-.222-3.237l-1.703-1.054 1.228-1.613a24.635 24.635 0 00-1.175-3.59l-1.94-.58.764-1.874a24.184 24.184 0 00-2.084-3.168l-2.008-.067.25-1.981a23.568 23.568 0 00-2.826-2.548l-1.953.462-.277-1.991a22.18 22.18 0 00-3.381-1.718l-1.781.951-.78-1.847a21.805 21.805 0 00-3.723-.782l-1.449 1.373-1.231-1.584c-.182-.013-.382-.013-.565-.013-1.098 0-2.18.065-3.237.224l-1.057 1.705-1.608-1.228a23.414 23.414 0 00-3.59 1.188l-.583 1.926-1.876-.765a25.732 25.732 0 00-3.179 2.088l-.053 2.006-1.996-.252a24.873 24.873 0 00-2.535 2.826l.464 1.953-1.994.277a24.724 24.724 0 00-1.73 3.379l.963 1.784-1.847.776c-.37 1.204-.62 2.46-.779 3.725l1.372 1.453-1.584 1.226c-.013.187-.013.386-.013.57a21.8 21.8 0 00.225 3.236"/><path d="M122.57 133.313c0 .57.038 1.127.112 1.672.059.47.136.936.244 1.379.146.648.353 1.278.589 1.876.18.428.362.858.584 1.262.316.583.659 1.127 1.049 1.647.266.366.563.721.879 1.063.425.481.902.925 1.417 1.317a10 10 0 001.11.797c.523.341 1.099.646 1.684.885.413.191.843.343 1.281.468.597.188 1.233.318 1.869.407.438.063.876.099 1.33.099.097.013.192.013.292.013.536 0 1.086-.038 1.612-.112.451-.066.902-.14 1.328-.254.623-.153 1.22-.356 1.796-.609.426-.175.839-.378 1.233-.605a13.386 13.386 0 001.586-1.076c.354-.294.697-.583 1.023-.913.454-.453.892-.949 1.269-1.468.284-.369.538-.761.774-1.151.326-.571.61-1.152.851-1.759.184-.433.33-.873.451-1.329.184-.622.305-1.266.392-1.925.059-.453.098-.923.098-1.392.012-.101.012-.201.012-.292 0-.57-.038-1.125-.11-1.682a12.708 12.708 0 00-.246-1.379 11.418 11.418 0 00-.585-1.861c-.184-.445-.366-.86-.584-1.278a13.254 13.254 0 00-1.053-1.635 8.54 8.54 0 00-.864-1.059 12.894 12.894 0 00-1.415-1.333 12.552 12.552 0 00-1.124-.783 11.675 11.675 0 00-1.682-.9 9.427 9.427 0 00-1.282-.453 9.047 9.047 0 00-1.855-.405 9.29 9.29 0 00-1.346-.117c-.095-.01-.194-.01-.279-.01a9.53 9.53 0 00-1.622.127 9.519 9.519 0 00-1.333.239c-.623.166-1.22.367-1.792.619-.428.178-.832.379-1.233.597-.563.326-1.088.682-1.586 1.086-.356.293-.697.585-1.028.911-.464.458-.877.937-1.268 1.458-.28.379-.536.771-.769 1.163-.331.557-.61 1.139-.856 1.749a14.42 14.42 0 00-.451 1.329 12.44 12.44 0 00-.39 1.935c-.061.458-.098.911-.098 1.392-.014.089-.014.191-.014.29" fill="#000812"/><path d="M122.879 133.021c.013-.464.04-.911.112-1.36.068-.637.193-1.273.375-1.883.114-.434.265-.867.435-1.286.235-.595.516-1.173.836-1.709.225-.392.477-.769.752-1.129.377-.509.784-.982 1.231-1.436.32-.316.654-.606 1.004-.881a11.3 11.3 0 011.548-1.055 9.667 9.667 0 011.203-.595 10.64 10.64 0 011.744-.596c.434-.114.866-.186 1.313-.245a9.296 9.296 0 011.578-.115c.085 0 .18 0 .265.015.449 0 .881.03 1.313.1a9.733 9.733 0 011.813.392 7.77 7.77 0 011.258.463 9.239 9.239 0 011.646.869 11.187 11.187 0 012.457 2.057c.322.332.602.677.867 1.042.375.491.711 1.042 1.018 1.59.21.407.39.829.574 1.248.221.578.415 1.184.572 1.824.098.432.18.883.221 1.343.084.538.112 1.074.112 1.637v.288c-.013.451-.04.9-.112 1.347a9.999 9.999 0 01-.378 1.884 9.62 9.62 0 01-.431 1.304 13.044 13.044 0 01-.837 1.708 10.53 10.53 0 01-.752 1.128c-.365.504-.786.983-1.246 1.432a9.22 9.22 0 01-.989.884c-.487.391-1.006.737-1.55 1.059-.39.214-.784.404-1.199.578a11.99 11.99 0 01-1.748.606c-.432.103-.864.191-1.296.245-.517.077-1.049.104-1.578.104h-.28a13.159 13.159 0 01-1.313-.104 10.708 10.708 0 01-1.813-.404 10.749 10.749 0 01-1.258-.447 12.025 12.025 0 01-1.646-.868 8.553 8.553 0 01-1.076-.784 9.231 9.231 0 01-1.381-1.288 10.058 10.058 0 01-.866-1.028 13.447 13.447 0 01-1.019-1.607c-.21-.389-.39-.809-.574-1.245a15.154 15.154 0 01-.573-1.807 11.27 11.27 0 01-.22-1.35 10.422 10.422 0 01-.112-1.635v-.29zm-2.095.29c0 .653.041 1.288.125 1.913.068.536.153 1.072.28 1.578.169.737.404 1.461.669 2.141.208.492.42.985.67 1.449a15.39 15.39 0 001.2 1.879c.308.422.644.828 1.005 1.218a11.641 11.641 0 001.622 1.506c.405.332.824.637 1.269.911.599.392 1.258.739 1.925 1.014.477.219.966.388 1.47.535.68.217 1.409.362 2.133.463.504.072 1.007.117 1.521.117.113.014.225.014.337.014.612 0 1.241-.042 1.843-.131.517-.07 1.031-.157 1.521-.288a12.261 12.261 0 002.052-.695 11.93 11.93 0 001.411-.697c.642-.36 1.241-.781 1.813-1.228a15.96 15.96 0 001.174-1.042 15.144 15.144 0 001.452-1.68c.32-.422.615-.868.878-1.318.376-.652.701-1.319.976-2.011a10.61 10.61 0 00.517-1.522c.212-.71.351-1.449.449-2.201.068-.518.112-1.056.112-1.593.012-.114.012-.23.012-.332 0-.65-.039-1.288-.124-1.926a14.218 14.218 0 00-.28-1.577 13.66 13.66 0 00-.669-2.129c-.21-.506-.422-.983-.669-1.462a15.66 15.66 0 00-1.202-1.868 10.423 10.423 0 00-.993-1.216 14.654 14.654 0 00-1.616-1.518 14.69 14.69 0 00-1.286-.898c-.601-.39-1.256-.74-1.925-1.028a10.346 10.346 0 00-1.466-.521 10.428 10.428 0 00-2.122-.462 10.93 10.93 0 00-1.536-.131c-.112-.015-.224-.015-.322-.015-.629 0-1.256.043-1.858.146a10.27 10.27 0 00-1.521.274c-.711.188-1.398.419-2.054.709a15.91 15.91 0 00-1.409.682c-.64.375-1.241.78-1.813 1.244-.404.332-.798.667-1.173 1.042a14.474 14.474 0 00-1.454 1.665c-.319.436-.612.883-.876 1.332a14.429 14.429 0 00-.979 1.997 14.249 14.249 0 00-.515 1.521c-.212.71-.352 1.462-.449 2.213a12.166 12.166 0 00-.112 1.593c-.013.102-.013.217-.013.333z" fill="#D0D1CC"/><path d="M124.83 133.307c0 5.62 4.554 10.176 10.174 10.176 5.619 0 10.171-4.556 10.171-10.176s-4.552-10.174-10.171-10.174c-5.62 0-10.174 4.554-10.174 10.174" fill="#1C5D9C"/><path d="M130.937 133.307a4.067 4.067 0 108.132 0 4.065 4.065 0 00-4.065-4.063 4.064 4.064 0 00-4.067 4.063" fill="#D0D1CC"/><path fill="#000812" d="M134.213 127.442l-.79-1.367.79-1.368h1.581l.787 1.368-.787 1.367h-1.581M129.024 129.795l-.79-1.368.79-1.367h1.58l.788 1.367-.788 1.368h-1.58M127.035 134.677l-.79-1.37.79-1.364h1.578l.79 1.364-.79 1.37h-1.578M134.213 139.172l-.79 1.37.79 1.365h1.581l.787-1.365-.787-1.37h-1.581M129.024 136.821l-.79 1.368.79 1.369h1.58l.788-1.369-.788-1.368h-1.58M140.985 129.795l.786-1.368-.786-1.367h-1.582l-.79 1.367.79 1.368h1.582M142.972 134.677l.79-1.37-.79-1.364h-1.58l-.79 1.364.79 1.37h1.58M140.985 136.821l.786 1.368-.786 1.369h-1.582l-.79-1.369.79-1.368h1.582M133.694 135.576l-1.307-2.269 1.307-2.265h2.617l1.31 2.265-1.31 2.269h-2.617M52.471 136.541l1.701 1.053-1.225 1.612a24.773 24.773 0 001.172 3.592l1.942.581-.765 1.874a24.212 24.212 0 002.085 3.167l2.006.068-.248 1.978a20.42 20.42 0 002.838 2.549l1.94-.46.278 1.991a22.621 22.621 0 003.379 1.717l1.783-.953.777 1.85c1.201.37 2.455.623 3.724.782l1.453-1.376 1.227 1.585c.186.015.383.015.569.015 1.096 0 2.178-.066 3.233-.224l1.057-1.706 1.609 1.229a23.502 23.502 0 003.591-1.189l.582-1.927 1.875.766a25.735 25.735 0 003.179-2.088l.053-2.006 1.983.253a23.405 23.405 0 002.548-2.827l-.464-1.954 1.995-.276a23.364 23.364 0 001.718-3.383l-.953-1.779 1.849-.782c.371-1.201.623-2.455.778-3.721l-1.373-1.451 1.584-1.23c.015-.185.015-.382.015-.566 0-1.095-.067-2.178-.226-3.237l-1.701-1.054 1.228-1.613a25.127 25.127 0 00-1.175-3.59l-1.943-.58.765-1.874a23.883 23.883 0 00-2.084-3.168l-2.006-.067.252-1.981a24.038 24.038 0 00-2.826-2.548l-1.953.462-.281-1.991a22.16 22.16 0 00-3.379-1.718l-1.784.951-.777-1.847a21.836 21.836 0 00-3.724-.782l-1.451 1.373-1.228-1.584c-.184-.013-.384-.013-.566-.013-1.099 0-2.179.065-3.236.224l-1.055 1.705-1.612-1.228a23.414 23.414 0 00-3.59 1.188l-.583 1.926-1.872-.765a25.396 25.396 0 00-3.182 2.088l-.053 2.006-1.995-.252a24.386 24.386 0 00-2.533 2.826l.461 1.953-1.995.277a24.594 24.594 0 00-1.727 3.379l.962 1.784-1.849.776a21.98 21.98 0 00-.777 3.725l1.372 1.453-1.584 1.226c-.013.187-.013.386-.013.57a21.8 21.8 0 00.225 3.236"/><path d="M64.678 133.313c0 .57.033 1.127.108 1.672.062.47.133.936.241 1.379a13.3 13.3 0 00.589 1.876c.18.428.364.858.585 1.262a13.578 13.578 0 001.929 2.71c.426.481.903.925 1.415 1.317.356.288.72.557 1.113.797a10.08 10.08 0 001.681.885c.415.191.845.343 1.284.468.597.188 1.231.318 1.866.407.439.063.881.099 1.33.099.098.013.197.013.295.013.538 0 1.084-.038 1.611-.112.452-.066.901-.14 1.329-.254a10.822 10.822 0 001.794-.609c.426-.175.843-.378 1.233-.605a12.912 12.912 0 001.586-1.076c.356-.294.697-.583 1.027-.913.451-.453.89-.949 1.269-1.468.282-.369.536-.761.769-1.151.331-.571.61-1.152.854-1.759.182-.433.328-.873.451-1.329.182-.622.303-1.266.392-1.925.061-.453.095-.923.095-1.392.013-.101.013-.201.013-.292 0-.57-.038-1.125-.108-1.682a13.213 13.213 0 00-.246-1.379 11.514 11.514 0 00-.584-1.861c-.185-.445-.369-.86-.587-1.278a13.465 13.465 0 00-1.049-1.635 9.047 9.047 0 00-.868-1.059 12.805 12.805 0 00-1.415-1.333 12.394 12.394 0 00-1.123-.783 11.697 11.697 0 00-1.684-.9 9.414 9.414 0 00-1.281-.453 8.938 8.938 0 00-1.854-.405 9.29 9.29 0 00-1.345-.117c-.097-.01-.197-.01-.279-.01-.551 0-1.1.036-1.625.127a9.45 9.45 0 00-1.328.239 12.14 12.14 0 00-1.796.619c-.426.178-.831.379-1.233.597-.561.326-1.085.682-1.587 1.086-.353.293-.697.585-1.025.911-.464.458-.879.937-1.27 1.458-.28.379-.534.771-.767 1.163-.331.557-.61 1.139-.854 1.749a12.921 12.921 0 00-.843 3.264c-.061.458-.095.911-.095 1.392-.013.089-.013.191-.013.29" fill="#000812"/><path d="M64.98 133.021c.014-.464.043-.911.113-1.36.07-.637.197-1.273.377-1.883.112-.434.265-.867.432-1.286a12.03 12.03 0 01.837-1.709c.225-.392.476-.769.754-1.129.379-.509.784-.982 1.229-1.436.319-.316.656-.606 1.006-.881a11.18 11.18 0 011.548-1.055 9.506 9.506 0 011.201-.595 10.727 10.727 0 011.746-.596c.431-.114.864-.186 1.313-.245a9.296 9.296 0 011.578-.115c.082 0 .18 0 .264.015.447 0 .88.03 1.312.1.614.074 1.23.203 1.815.392.432.116.851.275 1.256.463a9.137 9.137 0 011.646.869c.381.231.741.491 1.088.767.49.39.954.825 1.371 1.29.32.332.599.677.864 1.042.377.491.712 1.042 1.021 1.59.208.407.39.829.572 1.248.225.578.417 1.184.574 1.824.095.432.18.883.223 1.343.084.538.11 1.074.11 1.637v.288c-.013.451-.041.9-.11 1.347-.07.651-.195 1.277-.38 1.884a9.76 9.76 0 01-.431 1.304 13.302 13.302 0 01-.837 1.708 9.98 9.98 0 01-.754 1.128 11.13 11.13 0 01-1.242 1.432c-.307.32-.644.611-.993.884-.487.391-1.004.737-1.549 1.059-.391.214-.781.404-1.201.578a11.83 11.83 0 01-1.745.606c-.432.103-.864.191-1.298.245-.515.077-1.049.104-1.576.104h-.282a13.19 13.19 0 01-1.311-.104 10.808 10.808 0 01-1.816-.404 10.918 10.918 0 01-1.256-.447 11.786 11.786 0 01-1.645-.868 8.48 8.48 0 01-1.076-.784 9.252 9.252 0 01-1.384-1.288 10.169 10.169 0 01-.864-1.028 13.587 13.587 0 01-1.021-1.607 14.47 14.47 0 01-.571-1.245 15.926 15.926 0 01-.575-1.807c-.095-.437-.18-.9-.22-1.35a10.669 10.669 0 01-.113-1.635v-.29zm-2.092.29c0 .653.04 1.288.125 1.913.07.536.152 1.072.28 1.578.167.737.404 1.461.669 2.141.21.492.419.985.671 1.449.361.666.752 1.288 1.199 1.879.307.422.642.828 1.006 1.218.49.548 1.034 1.057 1.619 1.506.404.332.824.637 1.271.911.599.392 1.256.739 1.927 1.014.474.219.962.388 1.466.535.682.217 1.41.362 2.135.463.504.072 1.004.117 1.521.117.112.014.225.014.337.014.612 0 1.241-.042 1.84-.131.517-.07 1.034-.157 1.523-.288a12.396 12.396 0 002.053-.695c.489-.205.961-.434 1.409-.697.641-.36 1.243-.781 1.815-1.228.404-.333.796-.665 1.173-1.042a15.031 15.031 0 001.451-1.68 13.3 13.3 0 00.879-1.318c.379-.652.699-1.319.979-2.011.209-.492.377-1.001.519-1.522.208-.71.347-1.449.442-2.201.072-.518.113-1.056.113-1.593.012-.114.012-.23.012-.332 0-.65-.04-1.288-.125-1.926a13.987 13.987 0 00-.279-1.577 12.857 12.857 0 00-.669-2.129 18.1 18.1 0 00-.668-1.462 15.301 15.301 0 00-1.203-1.868 10.407 10.407 0 00-.991-1.216 14.863 14.863 0 00-1.619-1.518 13.436 13.436 0 00-1.285-.898c-.6-.39-1.256-.74-1.926-1.028a10.29 10.29 0 00-1.465-.521 10.419 10.419 0 00-2.121-.462 10.931 10.931 0 00-1.537-.131c-.113-.015-.225-.015-.32-.015-.629 0-1.259.043-1.858.146-.517.056-1.019.142-1.523.274a13.72 13.72 0 00-2.052.709c-.49.201-.949.437-1.409.682-.642.375-1.244.78-1.815 1.244a14.76 14.76 0 00-2.625 2.707 15.52 15.52 0 00-.879 1.332 15.215 15.215 0 00-1.493 3.518c-.212.71-.347 1.462-.447 2.213-.07.522-.113 1.041-.113 1.593-.012.102-.012.217-.012.333z" fill="#D0D1CC"/><path d="M66.932 133.307c0 5.62 4.556 10.176 10.175 10.176 5.62 0 10.174-4.556 10.174-10.176s-4.554-10.174-10.174-10.174c-5.619 0-10.175 4.554-10.175 10.174" fill="#1C5D9C"/><path d="M73.04 133.307a4.066 4.066 0 108.132.002 4.066 4.066 0 00-8.132-.002" fill="#D0D1CC"/><path fill="#000812" d="M76.317 127.442l-.79-1.367.79-1.368h1.581l.79 1.368-.79 1.367h-1.581M71.128 129.795l-.79-1.368.79-1.367h1.58l.79 1.367-.79 1.368h-1.58M69.139 134.677l-.79-1.37.79-1.364h1.58l.788 1.364-.788 1.37h-1.58M76.317 139.172l-.79 1.37.79 1.365h1.581l.79-1.365-.79-1.37h-1.581M71.128 136.821l-.79 1.368.79 1.369h1.58l.79-1.369-.79-1.368h-1.58M83.087 129.795l.79-1.368-.79-1.367h-1.58l-.79 1.367.79 1.368h1.58M85.076 134.677l.79-1.37-.79-1.364h-1.58l-.788 1.364.788 1.37h1.58M83.087 136.821l.79 1.368-.79 1.369h-1.58l-.79-1.369.79-1.368h1.58M75.796 135.576l-1.307-2.269 1.307-2.265h2.62l1.307 2.265-1.307 2.269h-2.62M288.095 71.861l-2.194-.655v-1.48l.012-11.74 2.197-.65.004-2.891-3.81 2.201-.02 15.899 3.809 2.207.002-2.891M274.484 138.189v-23.653l21.061-16.346-.31-3.464h-15.911l-11.027 13.718v26.902l6.187 2.843M160.816 103.837H61.752v2.137h.627v.644h87.92l10.663 8.824 4.425 18.706 3.855.782v-24.995l-8.426-6.098M268.985 71.397h6.095v-1.03h-6.095zM268.985 69.751h6.095v-1.03h-6.095zM268.985 73.044h6.095v-1.032h-6.095zM268.985 68.105h6.095v-1.033h-6.095zM274.202 57.075h6.096v-1.03h-6.096zM274.202 55.43h6.096V54.4h-6.096zM274.202 58.724h6.096v-1.03h-6.096zM274.202 53.782h6.096v-1.033h-6.096z"/><path fill="#000812" d="M36.553 104.588h180.733v-3.335H36.553z"/><path fill="#B9BBB7" d="M187.363 125.959h49.151v-16.422h-49.151z"/><path fill="#000812" d="M185.626 116.732V104.11h5.05v12.622h18.934V104.11h5.065v12.622h18.93V104.11h5.05v12.622h1.533v2.03h-1.533v12.623h-5.05v-12.623h-18.93v12.623h-5.065v-12.623h-18.934v12.623h-5.05v-12.623h-1.622v-2.03h1.622"/><path fill="#000812" d="M221.607 110.24h7.9v-2.887h-7.9z"/><path fill="#1C5D9C" d="M222.785 105.251v2.104h5.543v-2.104h-1.152l-.167.592h-2.906l-.166-.592h-1.152"/><path fill="#000812" d="M224.454 105.843h2.202v-.81h-2.202z"/><path fill="#00020A" d="M268.212 38.838h2.919V21.673h-2.919z"/><path fill="#0B457C" d="M269.351 23.164v2.081l2.654.752v2.276h-2.654v2.079l2.654.755v2.277h-2.654v2.082l2.654.754v5.079l-2.575 5.917h-5.008V20.529h7.583v2.635h-2.654"/><path fill="#1C5D9C" d="M135.645.727H3.528v96.778h260.894V.727H135.645"/><path fill="#000812" d="M147.908 103.837H56.195l-.651.258 1.911-2.84H36.553v18.125l4.221 2.845v23.913l4.124-.779 4.427-29.917 10.659-8.824h87.924v-.644h.624v-2.137h-.624"/><path fill="#D0D1CC" d="M24.109 123.697h5.983v-13.268h-5.983z"/><path fill="#A13724" d="M7.591 113.095h3.622V102.69H7.591z"/><path fill="#000812" d="M5.769 118.709H16.03v-7.793l-3.402-5.008v-4.653H6.654v1.647l3.55.901v10.677l-5.587.02 1.152 4.209M32.712 120.524H5.153v-1.815H.459v15.433h11.455l2.718-4.982h18.08v-8.636M19.76 116.795h14.68v-4.505H19.76z"/><path fill="#1C5D9C" d="M21.372 115.455l-.526-.913.526-.911h1.052l.526.911-.526.913h-1.052M32.829 115.455l.525-.913-.525-.911h-1.055l-.525.911.525.913h1.055M286.56 100.268l-.423-92.465h60.67c13.118.938 19.559 15.438 21.109 29.121l.356 3.896 4.938 38.996-.429 33.889-86.221-13.437"/><path fill="#1C5D9C" d="M341.688 135.634h25.684v-27.699H333.75l7.938 27.699"/><path fill="#0B457C" d="M340.392 126.822h21.125v-19.727h-21.125zM286.403 70.733l-.135-33.782 81.546.547.458 3.268 4.938 38.995-.058 9.352-86.749-18.38"/><path fill="#000812" d="M343.731 117.606h17.786v-1.391h-17.786zM343.731 127.096h17.786v-1.389h-17.786zM372.663 104.794l1.859.23V87.209l-1.859-.231v17.816"/><path fill="#0B457C" d="M365.572 136.681h7.715v-8.099l-2.665-.018-.019-6.021 2.684-1.63v-6.105l-3.18-.393v-8.954l5.066.627v-2.897l-2.164-.268v-2.202l2.164-.667v-2.273l-2.164-.268v-2.206l2.164-.667v-2.273l-2.164-.268v-2.203l2.164-.667v-2.014l-9.601-2.034v51.5"/><path fill="#000812" d="M316.734 65.589v37.68l18.031 3.655 25.651-.062V71.421h1.098v36.469l.003.225-26.909-.1-18.976-3.775.004-.034V65.589h1.098M315.636 38.027h1.098v-8.572h-1.098z"/><path fill="#000812" d="M315.85 30.553h46.703v-1.098H315.85zM341.078 136.604l-9.263-27.338-45.678-6.174v-8.08l54.726 7.768 9.413 33.824h-9.198M373.214 79.713l-78.529-16.638v-26.07l73.287.383 5.242 42.325"/><path fill="#8FD1E9" d="M368.106 38.467l4.952 39.984-10.71-2.239-4.87-37.745h10.628"/><path fill="#00B8E0" d="M368.106 38.467l4.952 39.984-2.327-.486-9.735-39.498h7.11"/><path fill="#8FD1E9" d="M358.813 75.442l-41.387-8.653v-28.5l36.618.192 4.769 36.961"/><path fill="#00B8E0" d="M329.631 69.341l-7.302-1.527-4.903-27.66v-1.865l6.594.035 5.611 31.017M330.814 38.36l8.059 32.912 18.443 3.856-9.802-36.681-16.7-.087"/><path fill="#000812" d="M351.305 50.465v11.051l4.456 1.444 1.848 15.549h1.626v2.926h-4.483v-2.926h1.761l-1.849-14.749-3.359-1.091v5.495l-3.386 1.734V52.2l3.386-1.735M356.734 29.455h11.356l4.27 14.742h-4.993l-10.633-14.742M328.775 95.757v-6.638l-12.513-6.77v11.858l12.513 1.55"/><path fill="#1C5D9C" d="M320.679 86.404l-4.013-2.172v8.547l4.013.498v-6.873"/><path fill="#F6BD29" d="M370.603 129.374h2.116v-6.036h-2.116z"/><path fill="#000812" d="M290.357 99.306h5.641v-5.645h-5.641z"/><path fill="#1C5D9C" d="M292.374 97.878l-.803-1.394.803-1.393h1.608l.806 1.393-.806 1.394h-1.608"/></g></svg>